<?xml version="1.0" standalone="no"?>
<!DOCTYPE svg PUBLIC "-//W3C//DTD SVG 20010904//EN"
 "http://www.w3.org/TR/2001/REC-SVG-20010904/DTD/svg10.dtd">
<svg version="1.0" xmlns="http://www.w3.org/2000/svg"
 width="128.000000pt" height="128.000000pt" viewBox="0 0 128.000000 128.000000"
 preserveAspectRatio="xMidYMid meet">
<metadata>
Created by potrace 1.11, written by Peter Selinger 2001-2013
</metadata>
<g transform="translate(0.000000,128.000000) scale(0.100000,-0.100000)"
fill="#000000" stroke="none">
<path d="M610 1274 c-57 -4 -117 -19 -160 -41 -14 -7 -30 -13 -37 -13 -7 0
-59 -32 -117 -70 -125 -85 -193 -166 -267 -320 -20 -42 -21 -56 -16 -215 3
-111 11 -186 20 -215 8 -25 18 -63 22 -85 4 -22 19 -65 33 -95 20 -41 33 -56
52 -58 13 -2 47 -24 76 -48 58 -50 154 -84 234 -84 26 0 51 -5 58 -12 8 -8 62
-12 177 -12 157 0 166 1 185 22 12 12 32 22 45 22 13 0 26 4 29 9 3 4 20 11
37 15 42 8 159 121 159 153 0 13 12 40 26 59 15 20 24 40 20 50 -3 9 0 28 8
42 20 38 56 203 56 256 0 25 5 48 10 51 12 8 13 120 1 143 -5 10 -11 38 -14
63 -3 25 -10 55 -16 67 -6 11 -11 29 -11 39 0 10 -16 29 -36 43 -19 14 -47 34
-62 46 -51 40 -109 71 -270 146 -80 38 -141 48 -242 42z m352 -146 c39 -24 89
-60 112 -80 100 -88 125 -265 65 -449 -37 -112 -99 -228 -150 -284 -21 -22
-54 -58 -73 -81 -53 -62 -98 -71 -363 -79 l-223 -7 -66 34 c-123 62 -200 181
-213 331 -4 45 -4 129 1 186 10 116 33 173 117 291 39 55 47 61 49 43 3 -24
35 -32 47 -13 7 12 55 13 55 2 0 -5 -8 -24 -18 -43 -29 -58 -14 -198 21 -186
7 2 13 14 15 26 3 18 8 22 25 17 12 -3 47 -9 77 -12 73 -9 90 -19 90 -53 0
-21 -15 -44 -55 -87 -55 -59 -56 -59 -49 -109 7 -56 25 -91 52 -99 25 -8 52
-68 52 -115 0 -32 9 -50 46 -95 25 -31 51 -56 58 -56 8 0 19 -7 26 -15 7 -8
23 -15 35 -15 21 0 23 4 21 38 -1 20 -8 50 -14 65 -16 37 -15 54 3 108 16 45
37 72 88 110 15 11 27 29 27 39 0 11 10 25 23 31 34 17 67 59 67 85 0 23 -51
74 -76 74 -7 0 -20 13 -28 29 -29 55 -156 116 -168 80 -2 -7 -13 -9 -26 -5
-19 6 -42 56 -42 93 0 19 30 43 54 43 18 0 25 -7 30 -30 11 -57 42 -30 62 53
8 36 37 91 49 95 6 2 24 14 42 28 17 13 36 24 41 24 6 0 12 7 16 15 8 23 22
19 98 -27z"/>
</g>
</svg>
